<svg width="17" height="14" viewBox="0 0 17 14" fill="none" xmlns="http://www.w3.org/2000/svg">
<path fill-rule="evenodd" clip-rule="evenodd" d="M0 13.1364C0 12.9314 0.0814123 12.7349 0.226327 12.59C0.371241 12.445 0.567787 12.3636 0.772727 12.3636H16.2273C16.4322 12.3636 16.6288 12.445 16.7737 12.59C16.9186 12.7349 17 12.9314 17 13.1364C17 13.3413 16.9186 13.5379 16.7737 13.6828C16.6288 13.8277 16.4322 13.9091 16.2273 13.9091H0.772727C0.567787 13.9091 0.371241 13.8277 0.226327 13.6828C0.0814123 13.5379 0 13.3413 0 13.1364ZM0 6.95455C0 6.74961 0.0814123 6.55306 0.226327 6.40815C0.371241 6.26323 0.567787 6.18182 0.772727 6.18182H16.2273C16.4322 6.18182 16.6288 6.26323 16.7737 6.40815C16.9186 6.55306 17 6.74961 17 6.95455C17 7.15949 16.9186 7.35603 16.7737 7.50095C16.6288 7.64586 16.4322 7.72727 16.2273 7.72727H0.772727C0.567787 7.72727 0.371241 7.64586 0.226327 7.50095C0.0814123 7.35603 0 7.15949 0 6.95455ZM0 0.772727C0 0.567787 0.0814123 0.371241 0.226327 0.226327C0.371241 0.0814123 0.567787 0 0.772727 0H16.2273C16.4322 0 16.6288 0.0814123 16.7737 0.226327C16.9186 0.371241 17 0.567787 17 0.772727C17 0.977667 16.9186 1.17421 16.7737 1.31913C16.6288 1.46404 16.4322 1.54545 16.2273 1.54545H0.772727C0.567787 1.54545 0.371241 1.46404 0.226327 1.31913C0.0814123 1.17421 0 0.977667 0 0.772727Z" fill="#54595E"/>
</svg>
